<svg width="307" height="307" viewBox="0 0 307 307" fill="none" xmlns="http://www.w3.org/2000/svg">
<rect width="307" height="307" rx="150" fill="#01E675" fill-opacity="0.71"/>
<path d="M203.169 168.945C202.766 168.751 187.675 161.32 184.994 160.355C183.899 159.962 182.726 159.578 181.479 159.578C179.441 159.578 177.729 160.594 176.396 162.589C174.888 164.829 170.325 170.163 168.915 171.757C168.731 171.967 168.479 172.219 168.329 172.219C168.194 172.219 165.858 171.257 165.151 170.95C148.963 163.918 136.675 147.008 134.99 144.156C134.75 143.746 134.74 143.56 134.738 143.56C134.797 143.343 135.341 142.797 135.622 142.516C136.444 141.702 137.335 140.63 138.196 139.593C138.604 139.102 139.013 138.61 139.414 138.146C140.664 136.692 141.221 135.563 141.866 134.255L142.204 133.576C143.779 130.446 142.434 127.804 141.999 126.952C141.642 126.238 135.27 110.859 134.593 109.244C132.963 105.345 130.811 103.53 127.819 103.53C127.542 103.53 127.819 103.53 126.655 103.579C125.238 103.639 117.519 104.655 114.106 106.806C110.487 109.088 104.365 116.361 104.365 129.152C104.365 140.664 111.67 151.534 114.807 155.667C114.885 155.772 115.028 155.983 115.235 156.287C127.247 173.83 142.222 186.83 157.402 192.895C172.017 198.732 178.937 199.407 182.871 199.407H182.872C184.525 199.407 185.849 199.277 187.016 199.162L187.757 199.092C192.805 198.644 203.9 192.895 206.424 185.882C208.412 180.358 208.936 174.323 207.613 172.133C206.707 170.643 205.146 169.894 203.169 168.945Z" fill="white"/>
<path d="M155.337 50C99.2752 50 53.6654 95.2671 53.6654 150.908C53.6654 168.904 58.4815 186.52 67.6049 201.937L50.1423 253.449C49.817 254.409 50.059 255.471 50.7694 256.194C51.2822 256.718 51.9778 257 52.6882 257C52.9603 257 53.2346 256.959 53.502 256.874L107.215 239.806C121.913 247.659 138.525 251.804 155.338 251.804C211.395 251.805 257 206.542 257 150.908C257 95.2671 211.395 50 155.337 50ZM155.337 230.785C139.517 230.785 124.195 226.217 111.023 217.574C110.58 217.283 110.066 217.134 109.549 217.134C109.275 217.134 109.001 217.175 108.734 217.26L81.8274 225.813L90.5134 200.187C90.7943 199.358 90.6538 198.443 90.1363 197.736C80.1062 184.031 74.8042 167.839 74.8042 150.908C74.8042 106.858 110.931 71.0199 155.337 71.0199C199.737 71.0199 235.86 106.858 235.86 150.908C235.86 194.952 199.738 230.785 155.337 230.785Z" fill="white"/>
</svg>
